<svg width="1024" height="1024" viewBox="0 0 1024 1024" fill="none" xmlns="http://www.w3.org/2000/svg">
  <defs>
    <linearGradient id="bg" x1="128" y1="96" x2="896" y2="928" gradientUnits="userSpaceOnUse">
      <stop offset="0" stop-color="#F1E8CC"/>
      <stop offset="1" stop-color="#D7C89C"/>
    </linearGradient>
    <linearGradient id="koru" x1="240" y1="220" x2="736" y2="760" gradientUnits="userSpaceOnUse">
      <stop offset="0" stop-color="#5A5A40"/>
      <stop offset="1" stop-color="#A0A080"/>
    </linearGradient>
    <filter id="shadow" x="98" y="98" width="828" height="828" filterUnits="userSpaceOnUse" color-interpolation-filters="sRGB">
      <feFlood flood-opacity="0" result="BackgroundImageFix"/>
      <feColorMatrix in="SourceAlpha" type="matrix" values="0 0 0 0 0 0 0 0 0 0 0 0 0 0 0 0 0 0 127 0" result="hardAlpha"/>
      <feOffset dy="24"/>
      <feGaussianBlur stdDeviation="28"/>
      <feComposite in2="hardAlpha" operator="out"/>
      <feColorMatrix type="matrix" values="0 0 0 0 0.27451 0 0 0 0 0.254902 0 0 0 0 0.137255 0 0 0 0.18 0"/>
      <feBlend mode="normal" in2="BackgroundImageFix" result="effect1_dropShadow_0_1"/>
      <feBlend mode="normal" in="SourceGraphic" in2="effect1_dropShadow_0_1" result="shape"/>
    </filter>
  </defs>
  <rect width="1024" height="1024" rx="232" fill="url(#bg)"/>
  <circle cx="512" cy="512" r="340" fill="#F9F5E8" fill-opacity="0.72"/>
  <g filter="url(#shadow)">
    <path d="M512 864C614.4 795.733 682.667 693.333 682.667 556.8C682.667 420.267 580.267 317.867 443.733 317.867C341.333 317.867 273.067 386.133 273.067 488.533C273.067 590.933 341.333 659.2 443.733 659.2C512 659.2 566.613 604.587 566.613 536.32C566.613 481.707 525.653 433.92 477.867 433.92C443.733 433.92 409.6 454.4 409.6 481.707C409.6 502.187 430.08 522.667 457.387 522.667C477.867 522.667 498.347 502.187 498.347 481.707" stroke="url(#koru)" stroke-width="68.2667" stroke-linecap="round" stroke-linejoin="round"/>
    <circle cx="457.387" cy="481.707" r="40.96" fill="#C5A358" fill-opacity="0.92"/>
  </g>
</svg>
